<svg xmlns="http://www.w3.org/2000/svg" width="683" height="476" viewBox="-24 -3 683 476" role="img" aria-labelledby="title desc"><title id="title">Giải mã M và E theo trọng số</title><desc id="desc">10110000/1110 cho I=-80 và E=-2; kết quả -0.15625.</desc><text x="0" y="43" font-family="Segoe UI" font-size="21" font-weight="700" fill="#007F83" text-anchor="start">M</text><rect x="0" y="60" width="43" height="49" rx="0" fill="#EAF5F4" stroke="#007F83" stroke-width="2"/><text x="21.5" y="94" font-family="Consolas" font-size="25" font-weight="700" fill="#18364B" text-anchor="middle">1</text><text x="21.5" y="144" font-family="Consolas" font-size="18" font-weight="400" fill="#BA3849" text-anchor="middle">-1</text><rect x="43" y="60" width="43" height="49" rx="0" fill="#EAF5F4" stroke="#007F83" stroke-width="2"/><text x="64.5" y="94" font-family="Consolas" font-size="25" font-weight="700" fill="#18364B" text-anchor="middle">0</text><text x="64.5" y="130" font-family="Consolas" font-size="16" font-weight="400" fill="#586F7B" text-anchor="middle">1</text><path d="M48.5,136 L80.5,136" fill="none" stroke="#586F7B" stroke-width="1"/><text x="64.5" y="155" font-family="Consolas" font-size="16" font-weight="400" fill="#586F7B" text-anchor="middle">2</text><rect x="86" y="60" width="43" height="49" rx="0" fill="#EAF5F4" stroke="#007F83" stroke-width="2"/><text x="107.5" y="94" font-family="Consolas" font-size="25" font-weight="700" fill="#18364B" text-anchor="middle">1</text><text x="107.5" y="130" font-family="Consolas" font-size="16" font-weight="400" fill="#586F7B" text-anchor="middle">1</text><path d="M91.5,136 L123.5,136" fill="none" stroke="#586F7B" stroke-width="1"/><text x="107.5" y="155" font-family="Consolas" font-size="16" font-weight="400" fill="#586F7B" text-anchor="middle">4</text><rect x="129" y="60" width="43" height="49" rx="0" fill="#EAF5F4" stroke="#007F83" stroke-width="2"/><text x="150.5" y="94" font-family="Consolas" font-size="25" font-weight="700" fill="#18364B" text-anchor="middle">1</text><text x="150.5" y="130" font-family="Consolas" font-size="16" font-weight="400" fill="#586F7B" text-anchor="middle">1</text><path d="M134.5,136 L166.5,136" fill="none" stroke="#586F7B" stroke-width="1"/><text x="150.5" y="155" font-family="Consolas" font-size="16" font-weight="400" fill="#586F7B" text-anchor="middle">8</text><rect x="172" y="60" width="43" height="49" rx="0" fill="#EAF5F4" stroke="#007F83" stroke-width="2"/><text x="193.5" y="94" font-family="Consolas" font-size="25" font-weight="700" fill="#18364B" text-anchor="middle">0</text><text x="193.5" y="130" font-family="Consolas" font-size="16" font-weight="400" fill="#586F7B" text-anchor="middle">1</text><path d="M177.5,136 L209.5,136" fill="none" stroke="#586F7B" stroke-width="1"/><text x="193.5" y="155" font-family="Consolas" font-size="16" font-weight="400" fill="#586F7B" text-anchor="middle">16</text><rect x="215" y="60" width="43" height="49" rx="0" fill="#EAF5F4" stroke="#007F83" stroke-width="2"/><text x="236.5" y="94" font-family="Consolas" font-size="25" font-weight="700" fill="#18364B" text-anchor="middle">0</text><text x="236.5" y="130" font-family="Consolas" font-size="16" font-weight="400" fill="#586F7B" text-anchor="middle">1</text><path d="M220.5,136 L252.5,136" fill="none" stroke="#586F7B" stroke-width="1"/><text x="236.5" y="155" font-family="Consolas" font-size="16" font-weight="400" fill="#586F7B" text-anchor="middle">32</text><rect x="258" y="60" width="43" height="49" rx="0" fill="#EAF5F4" stroke="#007F83" stroke-width="2"/><text x="279.5" y="94" font-family="Consolas" font-size="25" font-weight="700" fill="#18364B" text-anchor="middle">0</text><text x="279.5" y="130" font-family="Consolas" font-size="16" font-weight="400" fill="#586F7B" text-anchor="middle">1</text><path d="M263.5,136 L295.5,136" fill="none" stroke="#586F7B" stroke-width="1"/><text x="279.5" y="155" font-family="Consolas" font-size="16" font-weight="400" fill="#586F7B" text-anchor="middle">64</text><rect x="301" y="60" width="43" height="49" rx="0" fill="#EAF5F4" stroke="#007F83" stroke-width="2"/><text x="322.5" y="94" font-family="Consolas" font-size="25" font-weight="700" fill="#18364B" text-anchor="middle">0</text><text x="322.5" y="130" font-family="Consolas" font-size="16" font-weight="400" fill="#586F7B" text-anchor="middle">1</text><path d="M306.5,136 L338.5,136" fill="none" stroke="#586F7B" stroke-width="1"/><text x="322.5" y="155" font-family="Consolas" font-size="16" font-weight="400" fill="#586F7B" text-anchor="middle">128</text><circle cx="43" cy="109" r="4" fill="#B85B16" stroke="#B85B16" stroke-width="2.5"/><text x="390" y="43" font-family="Segoe UI" font-size="21" font-weight="700" fill="#B85B16" text-anchor="start">E</text><rect x="390" y="60" width="43" height="49" rx="0" fill="#EAF5F4" stroke="#B85B16" stroke-width="2"/><text x="411.5" y="94" font-family="Consolas" font-size="25" font-weight="700" fill="#18364B" text-anchor="middle">1</text><text x="411.5" y="144" font-family="Consolas" font-size="18" font-weight="400" fill="#BA3849" text-anchor="middle">-8</text><rect x="433" y="60" width="43" height="49" rx="0" fill="#EAF5F4" stroke="#B85B16" stroke-width="2"/><text x="454.5" y="94" font-family="Consolas" font-size="25" font-weight="700" fill="#18364B" text-anchor="middle">1</text><text x="454.5" y="144" font-family="Consolas" font-size="18" font-weight="400" fill="#586F7B" text-anchor="middle">4</text><rect x="476" y="60" width="43" height="49" rx="0" fill="#EAF5F4" stroke="#B85B16" stroke-width="2"/><text x="497.5" y="94" font-family="Consolas" font-size="25" font-weight="700" fill="#18364B" text-anchor="middle">1</text><text x="497.5" y="144" font-family="Consolas" font-size="18" font-weight="400" fill="#586F7B" text-anchor="middle">2</text><rect x="519" y="60" width="43" height="49" rx="0" fill="#EAF5F4" stroke="#B85B16" stroke-width="2"/><text x="540.5" y="94" font-family="Consolas" font-size="25" font-weight="700" fill="#18364B" text-anchor="middle">0</text><text x="540.5" y="144" font-family="Consolas" font-size="18" font-weight="400" fill="#586F7B" text-anchor="middle">1</text><text x="364" y="94" font-family="Segoe UI" font-size="25" font-weight="400" fill="#9BAEB7" text-anchor="middle">|</text><text x="0" y="233" font-family="Consolas" font-size="25" font-weight="400" fill="#18364B" text-anchor="start">I = -128 + 32 + 16 = -80</text><text x="0" y="295" font-family="Consolas" font-size="25" font-weight="400" fill="#007F83" text-anchor="start">M = -80/128</text><text x="390" y="233" font-family="Consolas" font-size="24" font-weight="400" fill="#B85B16" text-anchor="start">E = -8 + 4 + 2 = -2</text><path d="M175,320 L175,390" fill="none" stroke="#007F83" stroke-width="2.5" stroke-linejoin="round"/><polygon points="175,390 169.87144143719405,379.15113429579526 180.12855856280595,379.15113429579526" fill="#007F83"/><path d="M520,252 L520,390" fill="none" stroke="#B85B16" stroke-width="2.5" stroke-linejoin="round"/><polygon points="520,390 514.871441437194,379.15113429579526 525.128558562806,379.15113429579526" fill="#B85B16"/><text x="0" y="444" font-family="Consolas" font-size="27" font-weight="700" fill="#18364B" text-anchor="start">X = (-80/128) × 2^-2 = -0.15625</text></svg>