<svg xmlns="http://www.w3.org/2000/svg" width="780" height="518" viewBox="-26.0 -27.0 780.0 518.0" role="img" aria-labelledby="title desc"><title id="title">Type, record variable and field</title><desc id="desc">Figure 46: Type, record variable and field. A teaching diagram for Chapter 13.</desc><rect x="0" y="0" width="255" height="60" rx="9" fill="#EAF5F4" stroke="#007F83" stroke-width="2" /><text x="127.5" y="37.82" font-family="Segoe UI" font-size="23" font-weight="700" fill="#007F83" text-anchor="middle">TLearner</text><rect x="365" y="0" width="365" height="60" rx="9" fill="#EAF5F4" stroke="#007F83" stroke-width="2" /><text x="547.5" y="37.82" font-family="Consolas" font-size="23" font-weight="700" fill="#007F83" text-anchor="middle">Learner : TLearner</text><path d="M262,30 L355,30" fill="none" stroke="#007F83" stroke-width="2.5" stroke-linejoin="round" /><polygon points="355,30 344.15113429579526,35.12855856280596 344.15113429579526,24.871441437194044" fill="#007F83" /><text x="308.5" y="18.0" font-family="Segoe UI" font-size="20" font-weight="400" fill="#007F83" text-anchor="middle">DECLARE</text><rect x="365" y="155" width="365" height="177" rx="9" fill="#FFFFFF" stroke="#007F83" stroke-width="2" /><rect x="365" y="155" width="365" height="48" rx="9" fill="#EAF5F4" stroke="#007F83" stroke-width="2" /><text x="381" y="187" font-family="Consolas" font-size="23" font-weight="700" fill="#18364B" text-anchor="start">Learner</text><text x="379" y="232" font-family="Consolas" font-size="20" font-weight="400" fill="#18364B" text-anchor="start">ID</text><text x="716" y="232" font-family="Consolas" font-size="20" font-weight="400" fill="#007F83" text-anchor="end">"AC027"</text><path d="M365,246 L730,246" fill="none" stroke="#9BAEB7" stroke-width="2" /><text x="379" y="275" font-family="Consolas" font-size="20" font-weight="400" fill="#18364B" text-anchor="start">Lessons</text><text x="716" y="275" font-family="Consolas" font-size="20" font-weight="400" fill="#007F83" text-anchor="end">8</text><rect x="367" y="290" width="361" height="41" rx="0" fill="#FFF1E2" stroke="none" stroke-width="2" /><path d="M365,289 L730,289" fill="none" stroke="#9BAEB7" stroke-width="2" /><text x="379" y="318" font-family="Consolas" font-size="20" font-weight="400" fill="#18364B" text-anchor="start">Status</text><text x="716" y="318" font-family="Consolas" font-size="20" font-weight="400" fill="#007F83" text-anchor="end">Active</text><path d="M548,70 L548,145" fill="none" stroke="#007F83" stroke-width="2.5" stroke-linejoin="round" /><polygon points="548,145 542.871441437194,134.15113429579526 553.128558562806,134.15113429579526" fill="#007F83" /><text x="0" y="410" font-family="Consolas" font-size="27" font-weight="400" fill="#18364B" text-anchor="start">Learner.Status ← Active</text><path d="M0,426 L112,426" fill="none" stroke="#007F83" stroke-width="4" /><path d="M130,426 L228,426" fill="none" stroke="#B85B16" stroke-width="4" /><text x="0" y="462" font-family="Segoe UI" font-size="21" font-weight="400" fill="#007F83" text-anchor="start">variable</text><text x="130" y="462" font-family="Segoe UI" font-size="21" font-weight="400" fill="#B85B16" text-anchor="start">field</text><text x="415" y="440" font-family="Consolas" font-size="24" font-weight="400" fill="#BA3849" text-anchor="start">TLearner.Status</text><path d="M377,423 L393,439" fill="none" stroke="#BA3849" stroke-width="3" /><path d="M377,439 L393,423" fill="none" stroke="#BA3849" stroke-width="3" /></svg>