<svg xmlns="http://www.w3.org/2000/svg" width="968" height="483" viewBox="-24.0 -24.0 968.0 483.0" role="img" aria-labelledby="title desc"><title id="title">PRIVATE and method access</title><desc id="desc">Figure 64: PRIVATE and method access. A teaching diagram for Chapter 13.</desc><rect x="350" y="0" width="570" height="385" rx="9" fill="#FFFFFF" stroke="#007F83" stroke-width="2" /><text x="380" y="46" font-family="Consolas" font-size="25" font-weight="700" fill="#007F83" text-anchor="start">CLASS TLearner</text><rect x="435" y="112" width="400" height="60" rx="9" fill="#FFF1E2" stroke="#B85B16" stroke-width="2" /><text x="635.0" y="149.82" font-family="Consolas" font-size="23" font-weight="700" fill="#B85B16" text-anchor="middle">PRIVATE Name : STRING</text><rect x="435" y="273" width="400" height="60" rx="9" fill="#EAF5F4" stroke="#007F83" stroke-width="2" /><text x="635.0" y="310.82" font-family="Consolas" font-size="23" font-weight="700" fill="#007F83" text-anchor="middle">GetName() / SetName()</text><rect x="0" y="130" width="255" height="60" rx="9" fill="#EAF5F4" stroke="#007F83" stroke-width="2" /><text x="127.5" y="167.82" font-family="Segoe UI" font-size="23" font-weight="700" fill="#007F83" text-anchor="middle">Outside code</text><path d="M263,159 L420,141" fill="none" stroke="#BA3849" stroke-width="2.5" stroke-linejoin="round" /><polygon points="420,141 409.8059015864108,147.33090495380074 408.63757983784734,137.14054303577473" fill="#BA3849" /><path d="M332,142 L348,158" fill="none" stroke="#BA3849" stroke-width="3" /><path d="M332,158 L348,142" fill="none" stroke="#BA3849" stroke-width="3" /><path d="M130,199 L130,303 L425,303" fill="none" stroke="#007F83" stroke-width="2.5" stroke-linejoin="round" /><polygon points="425,303 414.15113429579526,308.12855856280595 414.15113429579526,297.87144143719405" fill="#007F83" /><path d="M630,265 L630,184" fill="none" stroke="#007F83" stroke-width="2.5" stroke-linejoin="round" /><polygon points="630,184 635.128558562806,194.84886570420474 624.871441437194,194.84886570420474" fill="#007F83" /><text x="0" y="430" font-family="Segoe UI" font-size="23" font-weight="400" fill="#007F83" text-anchor="start">access through a method</text></svg>