<svg xmlns="http://www.w3.org/2000/svg" width="952" height="668" viewBox="-24 -31 952 668" role="img" aria-labelledby="title desc"><title id="title">Precision và range khi chia số bit</title><desc id="desc">Hai thanh16 bit so10M+6E với8M+8E; thêm zoom khoảng cách giá trị và phạm vi E(-32..31) so(-128..127). Không dùng chỉ một trục chung làm precision biến mất vì scale.</desc><text x="0" y="18" font-family="Consolas" font-size="24" font-weight="700" fill="#18364B" text-anchor="start">10M + 6E</text><rect x="0" y="35" width="43" height="51" rx="0" fill="#EAF5F4" stroke="#007F83" stroke-width="2"/><text x="21.5" y="69" font-family="Consolas" font-size="23" font-weight="400" fill="#007F83" text-anchor="middle">M</text><rect x="43" y="35" width="43" height="51" rx="0" fill="#EAF5F4" stroke="#007F83" stroke-width="2"/><text x="64.5" y="69" font-family="Consolas" font-size="23" font-weight="400" fill="#007F83" text-anchor="middle">M</text><rect x="86" y="35" width="43" height="51" rx="0" fill="#EAF5F4" stroke="#007F83" stroke-width="2"/><text x="107.5" y="69" font-family="Consolas" font-size="23" font-weight="400" fill="#007F83" text-anchor="middle">M</text><rect x="129" y="35" width="43" height="51" rx="0" fill="#EAF5F4" stroke="#007F83" stroke-width="2"/><text x="150.5" y="69" font-family="Consolas" font-size="23" font-weight="400" fill="#007F83" text-anchor="middle">M</text><rect x="172" y="35" width="43" height="51" rx="0" fill="#EAF5F4" stroke="#007F83" stroke-width="2"/><text x="193.5" y="69" font-family="Consolas" font-size="23" font-weight="400" fill="#007F83" text-anchor="middle">M</text><rect x="215" y="35" width="43" height="51" rx="0" fill="#EAF5F4" stroke="#007F83" stroke-width="2"/><text x="236.5" y="69" font-family="Consolas" font-size="23" font-weight="400" fill="#007F83" text-anchor="middle">M</text><rect x="258" y="35" width="43" height="51" rx="0" fill="#EAF5F4" stroke="#007F83" stroke-width="2"/><text x="279.5" y="69" font-family="Consolas" font-size="23" font-weight="400" fill="#007F83" text-anchor="middle">M</text><rect x="301" y="35" width="43" height="51" rx="0" fill="#EAF5F4" stroke="#007F83" stroke-width="2"/><text x="322.5" y="69" font-family="Consolas" font-size="23" font-weight="400" fill="#007F83" text-anchor="middle">M</text><rect x="344" y="35" width="43" height="51" rx="0" fill="#EAF5F4" stroke="#007F83" stroke-width="2"/><text x="365.5" y="69" font-family="Consolas" font-size="23" font-weight="400" fill="#007F83" text-anchor="middle">M</text><rect x="387" y="35" width="43" height="51" rx="0" fill="#EAF5F4" stroke="#007F83" stroke-width="2"/><text x="408.5" y="69" font-family="Consolas" font-size="23" font-weight="400" fill="#007F83" text-anchor="middle">M</text><rect x="430" y="35" width="43" height="51" rx="0" fill="#FFF1E2" stroke="#B85B16" stroke-width="2"/><text x="451.5" y="69" font-family="Consolas" font-size="23" font-weight="400" fill="#B85B16" text-anchor="middle">E</text><rect x="473" y="35" width="43" height="51" rx="0" fill="#FFF1E2" stroke="#B85B16" stroke-width="2"/><text x="494.5" y="69" font-family="Consolas" font-size="23" font-weight="400" fill="#B85B16" text-anchor="middle">E</text><rect x="516" y="35" width="43" height="51" rx="0" fill="#FFF1E2" stroke="#B85B16" stroke-width="2"/><text x="537.5" y="69" font-family="Consolas" font-size="23" font-weight="400" fill="#B85B16" text-anchor="middle">E</text><rect x="559" y="35" width="43" height="51" rx="0" fill="#FFF1E2" stroke="#B85B16" stroke-width="2"/><text x="580.5" y="69" font-family="Consolas" font-size="23" font-weight="400" fill="#B85B16" text-anchor="middle">E</text><rect x="602" y="35" width="43" height="51" rx="0" fill="#FFF1E2" stroke="#B85B16" stroke-width="2"/><text x="623.5" y="69" font-family="Consolas" font-size="23" font-weight="400" fill="#B85B16" text-anchor="middle">E</text><rect x="645" y="35" width="43" height="51" rx="0" fill="#FFF1E2" stroke="#B85B16" stroke-width="2"/><text x="666.5" y="69" font-family="Consolas" font-size="23" font-weight="400" fill="#B85B16" text-anchor="middle">E</text><text x="0" y="133" font-family="Segoe UI" font-size="22" font-weight="400" fill="#007F83" text-anchor="start">9 fraction bits</text><text x="390" y="133" font-family="Segoe UI" font-size="22" font-weight="400" fill="#B85B16" text-anchor="start">E: -32 to 31</text><text x="0" y="183" font-family="Consolas" font-size="24" font-weight="700" fill="#18364B" text-anchor="start">8M + 8E</text><rect x="0" y="200" width="43" height="51" rx="0" fill="#EAF5F4" stroke="#007F83" stroke-width="2"/><text x="21.5" y="234" font-family="Consolas" font-size="23" font-weight="400" fill="#007F83" text-anchor="middle">M</text><rect x="43" y="200" width="43" height="51" rx="0" fill="#EAF5F4" stroke="#007F83" stroke-width="2"/><text x="64.5" y="234" font-family="Consolas" font-size="23" font-weight="400" fill="#007F83" text-anchor="middle">M</text><rect x="86" y="200" width="43" height="51" rx="0" fill="#EAF5F4" stroke="#007F83" stroke-width="2"/><text x="107.5" y="234" font-family="Consolas" font-size="23" font-weight="400" fill="#007F83" text-anchor="middle">M</text><rect x="129" y="200" width="43" height="51" rx="0" fill="#EAF5F4" stroke="#007F83" stroke-width="2"/><text x="150.5" y="234" font-family="Consolas" font-size="23" font-weight="400" fill="#007F83" text-anchor="middle">M</text><rect x="172" y="200" width="43" height="51" rx="0" fill="#EAF5F4" stroke="#007F83" stroke-width="2"/><text x="193.5" y="234" font-family="Consolas" font-size="23" font-weight="400" fill="#007F83" text-anchor="middle">M</text><rect x="215" y="200" width="43" height="51" rx="0" fill="#EAF5F4" stroke="#007F83" stroke-width="2"/><text x="236.5" y="234" font-family="Consolas" font-size="23" font-weight="400" fill="#007F83" text-anchor="middle">M</text><rect x="258" y="200" width="43" height="51" rx="0" fill="#EAF5F4" stroke="#007F83" stroke-width="2"/><text x="279.5" y="234" font-family="Consolas" font-size="23" font-weight="400" fill="#007F83" text-anchor="middle">M</text><rect x="301" y="200" width="43" height="51" rx="0" fill="#EAF5F4" stroke="#007F83" stroke-width="2"/><text x="322.5" y="234" font-family="Consolas" font-size="23" font-weight="400" fill="#007F83" text-anchor="middle">M</text><rect x="344" y="200" width="43" height="51" rx="0" fill="#FFF1E2" stroke="#B85B16" stroke-width="2"/><text x="365.5" y="234" font-family="Consolas" font-size="23" font-weight="400" fill="#B85B16" text-anchor="middle">E</text><rect x="387" y="200" width="43" height="51" rx="0" fill="#FFF1E2" stroke="#B85B16" stroke-width="2"/><text x="408.5" y="234" font-family="Consolas" font-size="23" font-weight="400" fill="#B85B16" text-anchor="middle">E</text><rect x="430" y="200" width="43" height="51" rx="0" fill="#FFF1E2" stroke="#B85B16" stroke-width="2"/><text x="451.5" y="234" font-family="Consolas" font-size="23" font-weight="400" fill="#B85B16" text-anchor="middle">E</text><rect x="473" y="200" width="43" height="51" rx="0" fill="#FFF1E2" stroke="#B85B16" stroke-width="2"/><text x="494.5" y="234" font-family="Consolas" font-size="23" font-weight="400" fill="#B85B16" text-anchor="middle">E</text><rect x="516" y="200" width="43" height="51" rx="0" fill="#FFF1E2" stroke="#B85B16" stroke-width="2"/><text x="537.5" y="234" font-family="Consolas" font-size="23" font-weight="400" fill="#B85B16" text-anchor="middle">E</text><rect x="559" y="200" width="43" height="51" rx="0" fill="#FFF1E2" stroke="#B85B16" stroke-width="2"/><text x="580.5" y="234" font-family="Consolas" font-size="23" font-weight="400" fill="#B85B16" text-anchor="middle">E</text><rect x="602" y="200" width="43" height="51" rx="0" fill="#FFF1E2" stroke="#B85B16" stroke-width="2"/><text x="623.5" y="234" font-family="Consolas" font-size="23" font-weight="400" fill="#B85B16" text-anchor="middle">E</text><rect x="645" y="200" width="43" height="51" rx="0" fill="#FFF1E2" stroke="#B85B16" stroke-width="2"/><text x="666.5" y="234" font-family="Consolas" font-size="23" font-weight="400" fill="#B85B16" text-anchor="middle">E</text><text x="0" y="298" font-family="Segoe UI" font-size="22" font-weight="400" fill="#007F83" text-anchor="start">7 fraction bits</text><text x="390" y="298" font-family="Segoe UI" font-size="22" font-weight="400" fill="#B85B16" text-anchor="start">E: -128 to 127</text><text x="0" y="376" font-family="Segoe UI" font-size="23" font-weight="700" fill="#18364B" text-anchor="start">Local spacing at E = 0</text><path d="M0,443 L690,443" fill="none" stroke="#18364B" stroke-width="2"/><path d="M0.0,434 L0.0,452" fill="none" stroke="#007F83" stroke-width="2"/><path d="M26.953125,434 L26.953125,452" fill="none" stroke="#007F83" stroke-width="2"/><path d="M53.90625,434 L53.90625,452" fill="none" stroke="#007F83" stroke-width="2"/><path d="M80.859375,434 L80.859375,452" fill="none" stroke="#007F83" stroke-width="2"/><path d="M107.8125,434 L107.8125,452" fill="none" stroke="#007F83" stroke-width="2"/><path d="M134.765625,434 L134.765625,452" fill="none" stroke="#007F83" stroke-width="2"/><path d="M161.71875,434 L161.71875,452" fill="none" stroke="#007F83" stroke-width="2"/><path d="M188.671875,434 L188.671875,452" fill="none" stroke="#007F83" stroke-width="2"/><path d="M215.625,434 L215.625,452" fill="none" stroke="#007F83" stroke-width="2"/><path d="M242.578125,434 L242.578125,452" fill="none" stroke="#007F83" stroke-width="2"/><path d="M269.53125,434 L269.53125,452" fill="none" stroke="#007F83" stroke-width="2"/><path d="M296.484375,434 L296.484375,452" fill="none" stroke="#007F83" stroke-width="2"/><path d="M323.4375,434 L323.4375,452" fill="none" stroke="#007F83" stroke-width="2"/><path d="M350.390625,434 L350.390625,452" fill="none" stroke="#007F83" stroke-width="2"/><path d="M377.34375,434 L377.34375,452" fill="none" stroke="#007F83" stroke-width="2"/><path d="M404.296875,434 L404.296875,452" fill="none" stroke="#007F83" stroke-width="2"/><path d="M431.25,434 L431.25,452" fill="none" stroke="#007F83" stroke-width="2"/><path d="M458.203125,434 L458.203125,452" fill="none" stroke="#007F83" stroke-width="2"/><path d="M485.15625,434 L485.15625,452" fill="none" stroke="#007F83" stroke-width="2"/><path d="M512.109375,434 L512.109375,452" fill="none" stroke="#007F83" stroke-width="2"/><path d="M539.0625,434 L539.0625,452" fill="none" stroke="#007F83" stroke-width="2"/><path d="M566.015625,434 L566.015625,452" fill="none" stroke="#007F83" stroke-width="2"/><path d="M592.96875,434 L592.96875,452" fill="none" stroke="#007F83" stroke-width="2"/><path d="M619.921875,434 L619.921875,452" fill="none" stroke="#007F83" stroke-width="2"/><path d="M646.875,434 L646.875,452" fill="none" stroke="#007F83" stroke-width="2"/><path d="M673.828125,434 L673.828125,452" fill="none" stroke="#007F83" stroke-width="2"/><text x="0" y="488" font-family="Consolas" font-size="20" font-weight="400" fill="#18364B" text-anchor="start">0.50</text><text x="690" y="488" font-family="Consolas" font-size="20" font-weight="400" fill="#18364B" text-anchor="end">0.55</text><text x="750" y="450" font-family="Consolas" font-size="23" font-weight="400" fill="#18364B" text-anchor="start">step = 1/512</text><path d="M0,563 L690,563" fill="none" stroke="#18364B" stroke-width="2"/><path d="M0.0,554 L0.0,572" fill="none" stroke="#007F83" stroke-width="2"/><path d="M107.8125,554 L107.8125,572" fill="none" stroke="#007F83" stroke-width="2"/><path d="M215.625,554 L215.625,572" fill="none" stroke="#007F83" stroke-width="2"/><path d="M323.4375,554 L323.4375,572" fill="none" stroke="#007F83" stroke-width="2"/><path d="M431.25,554 L431.25,572" fill="none" stroke="#007F83" stroke-width="2"/><path d="M539.0625,554 L539.0625,572" fill="none" stroke="#007F83" stroke-width="2"/><path d="M646.875,554 L646.875,572" fill="none" stroke="#007F83" stroke-width="2"/><text x="0" y="608" font-family="Consolas" font-size="20" font-weight="400" fill="#18364B" text-anchor="start">0.50</text><text x="690" y="608" font-family="Consolas" font-size="20" font-weight="400" fill="#18364B" text-anchor="end">0.55</text><text x="750" y="570" font-family="Consolas" font-size="23" font-weight="400" fill="#18364B" text-anchor="start">step = 1/128</text></svg>