<svg xmlns="http://www.w3.org/2000/svg" width="949" height="605" viewBox="-24 -45 949 605" role="img" aria-labelledby="title desc"><title id="title">Bản đồ chọn phương pháp làm bài</title><desc id="desc">Ba tuyến: chọn kiểu→TYPE/DECLARE/use; chọn organisation/access→hash/key check; floating-point→bit count→M/E→normalise→check value. Gắn lỗi thường gặp tại mỗi nút.</desc><text x="0" y="0" font-family="Segoe UI" font-size="20" font-weight="700" fill="#586F7B" text-anchor="start">DATA TYPES</text><rect x="0" y="30" width="205" height="60" rx="9" fill="#EAF5F4" stroke="#007F83" stroke-width="2"/><text x="102.5" y="67.14" font-family="Segoe UI" font-size="21" font-weight="700" fill="#007F83" text-anchor="middle">Choose type</text><path d="M211,60 L225,60" fill="none" stroke="#007F83" stroke-width="2.5" stroke-linejoin="round"/><polygon points="225,60 214.15113429579526,65.12855856280596 214.15113429579526,54.87144143719404" fill="#007F83"/><rect x="232" y="30" width="205" height="60" rx="9" fill="#EAF5F4" stroke="#007F83" stroke-width="2"/><text x="334.5" y="67.14" font-family="Segoe UI" font-size="21" font-weight="700" fill="#007F83" text-anchor="middle">TYPE</text><path d="M443,60 L457,60" fill="none" stroke="#007F83" stroke-width="2.5" stroke-linejoin="round"/><polygon points="457,60 446.15113429579526,65.12855856280596 446.15113429579526,54.87144143719404" fill="#007F83"/><rect x="464" y="30" width="205" height="60" rx="9" fill="#EAF5F4" stroke="#007F83" stroke-width="2"/><text x="566.5" y="67.14" font-family="Segoe UI" font-size="21" font-weight="700" fill="#007F83" text-anchor="middle">DECLARE</text><path d="M675,60 L689,60" fill="none" stroke="#007F83" stroke-width="2.5" stroke-linejoin="round"/><polygon points="689,60 678.1511342957953,65.12855856280596 678.1511342957953,54.87144143719404" fill="#007F83"/><rect x="696" y="30" width="205" height="60" rx="9" fill="#EAF5F4" stroke="#007F83" stroke-width="2"/><text x="798.5" y="67.14" font-family="Segoe UI" font-size="21" font-weight="700" fill="#007F83" text-anchor="middle">Use fields</text><text x="0" y="137" font-family="Segoe UI" font-size="21" font-weight="400" fill="#B85B16" text-anchor="start">Check value type and pointer target</text><text x="0" y="197" font-family="Segoe UI" font-size="20" font-weight="700" fill="#586F7B" text-anchor="start">FILES</text><rect x="0" y="227" width="205" height="60" rx="9" fill="#EAF5F4" stroke="#007F83" stroke-width="2"/><text x="102.5" y="264.14" font-family="Segoe UI" font-size="21" font-weight="700" fill="#007F83" text-anchor="middle">Organisation</text><path d="M211,257 L225,257" fill="none" stroke="#007F83" stroke-width="2.5" stroke-linejoin="round"/><polygon points="225,257 214.15113429579526,262.12855856280595 214.15113429579526,251.87144143719405" fill="#007F83"/><rect x="232" y="227" width="205" height="60" rx="9" fill="#EAF5F4" stroke="#007F83" stroke-width="2"/><text x="334.5" y="264.14" font-family="Segoe UI" font-size="21" font-weight="700" fill="#007F83" text-anchor="middle">Access</text><path d="M443,257 L457,257" fill="none" stroke="#007F83" stroke-width="2.5" stroke-linejoin="round"/><polygon points="457,257 446.15113429579526,262.12855856280595 446.15113429579526,251.87144143719405" fill="#007F83"/><rect x="464" y="227" width="205" height="60" rx="9" fill="#EAF5F4" stroke="#007F83" stroke-width="2"/><text x="566.5" y="264.14" font-family="Segoe UI" font-size="21" font-weight="700" fill="#007F83" text-anchor="middle">Hash / index</text><path d="M675,257 L689,257" fill="none" stroke="#007F83" stroke-width="2.5" stroke-linejoin="round"/><polygon points="689,257 678.1511342957953,262.12855856280595 678.1511342957953,251.87144143719405" fill="#007F83"/><rect x="696" y="227" width="205" height="60" rx="9" fill="#EAF5F4" stroke="#007F83" stroke-width="2"/><text x="798.5" y="264.14" font-family="Segoe UI" font-size="21" font-weight="700" fill="#007F83" text-anchor="middle">Check key</text><text x="0" y="334" font-family="Segoe UI" font-size="21" font-weight="400" fill="#B85B16" text-anchor="start">Handle collision before using the record</text><text x="0" y="394" font-family="Segoe UI" font-size="20" font-weight="700" fill="#586F7B" text-anchor="start">FLOATING-POINT</text><rect x="0" y="424" width="205" height="60" rx="9" fill="#EAF5F4" stroke="#007F83" stroke-width="2"/><text x="102.5" y="461.14" font-family="Segoe UI" font-size="21" font-weight="700" fill="#007F83" text-anchor="middle">Count bits</text><path d="M211,454 L225,454" fill="none" stroke="#007F83" stroke-width="2.5" stroke-linejoin="round"/><polygon points="225,454 214.15113429579526,459.12855856280595 214.15113429579526,448.87144143719405" fill="#007F83"/><rect x="232" y="424" width="205" height="60" rx="9" fill="#EAF5F4" stroke="#007F83" stroke-width="2"/><text x="334.5" y="461.14" font-family="Segoe UI" font-size="21" font-weight="700" fill="#007F83" text-anchor="middle">Read M / E</text><path d="M443,454 L457,454" fill="none" stroke="#007F83" stroke-width="2.5" stroke-linejoin="round"/><polygon points="457,454 446.15113429579526,459.12855856280595 446.15113429579526,448.87144143719405" fill="#007F83"/><rect x="464" y="424" width="205" height="60" rx="9" fill="#EAF5F4" stroke="#007F83" stroke-width="2"/><text x="566.5" y="461.14" font-family="Segoe UI" font-size="21" font-weight="700" fill="#007F83" text-anchor="middle">Normalise</text><path d="M675,454 L689,454" fill="none" stroke="#007F83" stroke-width="2.5" stroke-linejoin="round"/><polygon points="689,454 678.1511342957953,459.12855856280595 678.1511342957953,448.87144143719405" fill="#007F83"/><rect x="696" y="424" width="205" height="60" rx="9" fill="#EAF5F4" stroke="#007F83" stroke-width="2"/><text x="798.5" y="461.14" font-family="Segoe UI" font-size="21" font-weight="700" fill="#007F83" text-anchor="middle">Check value</text><text x="0" y="531" font-family="Segoe UI" font-size="21" font-weight="400" fill="#B85B16" text-anchor="start">Keep sign, bit count and exponent consistent</text></svg>