<svg xmlns="http://www.w3.org/2000/svg" width="868" height="348" viewBox="-24 -24 868 348" role="img" aria-labelledby="title desc"><title id="title">Collision: nhiều key cùng một slot</title><desc id="desc">12,17,22 qua MOD5 cùng tới slot2; slot2 đã chứa12. Nhãn khác key / cùng hash; không cho hình diễn tả ghi đè record cũ.</desc><rect x="0" y="0" width="110" height="60" rx="9" fill="#EAF5F4" stroke="#007F83" stroke-width="2"/><text x="55.0" y="37.82" font-family="Consolas" font-size="23" font-weight="700" fill="#007F83" text-anchor="middle">12</text><text x="145" y="38" font-family="Consolas" font-size="25" font-weight="400" fill="#18364B" text-anchor="start">MOD 5 = 2</text><path d="M340,30 L415,30 L415,155 L495,155" fill="none" stroke="#007F83" stroke-width="2.5" stroke-linejoin="round"/><polygon points="495,155 484.15113429579526,160.12855856280595 484.15113429579526,149.87144143719405" fill="#007F83"/><rect x="0" y="120" width="110" height="60" rx="9" fill="#EAF5F4" stroke="#007F83" stroke-width="2"/><text x="55.0" y="157.82" font-family="Consolas" font-size="23" font-weight="700" fill="#007F83" text-anchor="middle">17</text><text x="145" y="158" font-family="Consolas" font-size="25" font-weight="400" fill="#18364B" text-anchor="start">MOD 5 = 2</text><path d="M340,150 L415,150 L415,155 L495,155" fill="none" stroke="#B85B16" stroke-width="2.5" stroke-linejoin="round"/><polygon points="495,155 484.15113429579526,160.12855856280595 484.15113429579526,149.87144143719405" fill="#B85B16"/><rect x="0" y="240" width="110" height="60" rx="9" fill="#EAF5F4" stroke="#007F83" stroke-width="2"/><text x="55.0" y="277.82" font-family="Consolas" font-size="23" font-weight="700" fill="#007F83" text-anchor="middle">22</text><text x="145" y="278" font-family="Consolas" font-size="25" font-weight="400" fill="#18364B" text-anchor="start">MOD 5 = 2</text><path d="M340,270 L415,270 L415,155 L495,155" fill="none" stroke="#B85B16" stroke-width="2.5" stroke-linejoin="round"/><polygon points="495,155 484.15113429579526,160.12855856280595 484.15113429579526,149.87144143719405" fill="#B85B16"/><rect x="510" y="105" width="310" height="91" rx="9" fill="#FFFFFF" stroke="#007F83" stroke-width="2"/><rect x="510" y="105" width="310" height="48" rx="9" fill="#EAF5F4" stroke="#007F83" stroke-width="2"/><text x="526" y="137" font-family="Consolas" font-size="23" font-weight="700" fill="#18364B" text-anchor="start">Slot 2</text><text x="524" y="182" font-family="Consolas" font-size="20" font-weight="400" fill="#18364B" text-anchor="start">stored key</text><text x="806" y="182" font-family="Consolas" font-size="20" font-weight="400" fill="#007F83" text-anchor="end">12</text><text x="510" y="255" font-family="Consolas" font-size="24" font-weight="400" fill="#BA3849" text-anchor="start">17 ≠ 12     22 ≠ 12</text><text x="510" y="295" font-family="Segoe UI" font-size="23" font-weight="700" fill="#BA3849" text-anchor="start">Collision: do not overwrite</text></svg>