<svg xmlns="http://www.w3.org/2000/svg" width="1008" height="454" viewBox="-24 -24 1008 454" role="img" aria-labelledby="title desc"><title id="title">Class → hai object có trạng thái riêng</title><desc id="desc">Một khuôn TCounter có Value và Increment()/GetValue(); tạo CounterA, CounterB. Gọi Increment trên A, chỉ A đổi 0→1, B vẫn 0.</desc><rect x="285" y="0" width="390" height="177" rx="9" fill="#FFFFFF" stroke="#007F83" stroke-width="2"/><rect x="285" y="0" width="390" height="48" rx="9" fill="#EAF5F4" stroke="#007F83" stroke-width="2"/><text x="301" y="32" font-family="Consolas" font-size="23" font-weight="700" fill="#18364B" text-anchor="start">TCounter (class)</text><text x="299" y="77" font-family="Consolas" font-size="20" font-weight="400" fill="#18364B" text-anchor="start">Value</text><text x="661" y="77" font-family="Consolas" font-size="20" font-weight="400" fill="#007F83" text-anchor="end">INTEGER</text><path d="M285,91 L675,91" fill="none" stroke="#9BAEB7" stroke-width="2"/><text x="299" y="120" font-family="Consolas" font-size="20" font-weight="400" fill="#18364B" text-anchor="start">Increment()</text><text x="661" y="120" font-family="Consolas" font-size="20" font-weight="400" fill="#007F83" text-anchor="end">+1</text><path d="M285,134 L675,134" fill="none" stroke="#9BAEB7" stroke-width="2"/><text x="299" y="163" font-family="Consolas" font-size="20" font-weight="400" fill="#18364B" text-anchor="start">GetValue()</text><text x="661" y="163" font-family="Consolas" font-size="20" font-weight="400" fill="#007F83" text-anchor="end">read</text><path d="M480,180 L480,217 L175,217 L175,256" fill="none" stroke="#007F83" stroke-width="2.5" stroke-linejoin="round"/><polygon points="175,256 169.87144143719405,245.15113429579526 180.12855856280595,245.15113429579526" fill="#007F83"/><rect x="0" y="265" width="350" height="91" rx="9" fill="#FFFFFF" stroke="#007F83" stroke-width="2"/><rect x="0" y="265" width="350" height="48" rx="9" fill="#EAF5F4" stroke="#007F83" stroke-width="2"/><text x="16" y="297" font-family="Consolas" font-size="23" font-weight="700" fill="#18364B" text-anchor="start">CounterA</text><text x="14" y="342" font-family="Consolas" font-size="20" font-weight="400" fill="#18364B" text-anchor="start">Value</text><text x="336" y="342" font-family="Consolas" font-size="20" font-weight="400" fill="#007F83" text-anchor="end">1</text><path d="M480,180 L480,217 L785,217 L785,256" fill="none" stroke="#007F83" stroke-width="2.5" stroke-linejoin="round"/><polygon points="785,256 779.871441437194,245.15113429579526 790.128558562806,245.15113429579526" fill="#007F83"/><rect x="610" y="265" width="350" height="91" rx="9" fill="#FFFFFF" stroke="#007F83" stroke-width="2"/><rect x="610" y="265" width="350" height="48" rx="9" fill="#EAF5F4" stroke="#007F83" stroke-width="2"/><text x="626" y="297" font-family="Consolas" font-size="23" font-weight="700" fill="#18364B" text-anchor="start">CounterB</text><text x="624" y="342" font-family="Consolas" font-size="20" font-weight="400" fill="#18364B" text-anchor="start">Value</text><text x="946" y="342" font-family="Consolas" font-size="20" font-weight="400" fill="#007F83" text-anchor="end">0</text><text x="0" y="401" font-family="Consolas" font-size="23" font-weight="400" fill="#B85B16" text-anchor="start">CounterA.Increment()</text><text x="610" y="401" font-family="Segoe UI" font-size="23" font-weight="400" fill="#586F7B" text-anchor="start">No method called</text><text x="417" y="237" font-family="Segoe UI" font-size="20" font-weight="700" fill="#007F83" text-anchor="start">NEW</text></svg>