<svg xmlns="http://www.w3.org/2000/svg" width="668" height="480" viewBox="-24 -28 668 480" role="img" aria-labelledby="title desc"><title id="title">Giải mã mantissa âm</title><desc id="desc">M10011000, E0011; tô trọng số -1 và các bit1/8,1/16; M=-0.8125, kết quả-6.5. Cảnh báo bit đầu không phải dấu gắn trước phần trị dương.</desc><text x="0" y="18" font-family="Segoe UI" font-size="21" font-weight="700" fill="#007F83" text-anchor="start">M</text><rect x="0" y="35" width="43" height="49" rx="0" fill="#EAF5F4" stroke="#007F83" stroke-width="2"/><text x="21.5" y="69" font-family="Consolas" font-size="25" font-weight="700" fill="#18364B" text-anchor="middle">1</text><rect x="43" y="35" width="43" height="49" rx="0" fill="#EAF5F4" stroke="#007F83" stroke-width="2"/><text x="64.5" y="69" font-family="Consolas" font-size="25" font-weight="700" fill="#18364B" text-anchor="middle">0</text><rect x="86" y="35" width="43" height="49" rx="0" fill="#EAF5F4" stroke="#007F83" stroke-width="2"/><text x="107.5" y="69" font-family="Consolas" font-size="25" font-weight="700" fill="#18364B" text-anchor="middle">0</text><rect x="129" y="35" width="43" height="49" rx="0" fill="#EAF5F4" stroke="#007F83" stroke-width="2"/><text x="150.5" y="69" font-family="Consolas" font-size="25" font-weight="700" fill="#18364B" text-anchor="middle">1</text><rect x="172" y="35" width="43" height="49" rx="0" fill="#EAF5F4" stroke="#007F83" stroke-width="2"/><text x="193.5" y="69" font-family="Consolas" font-size="25" font-weight="700" fill="#18364B" text-anchor="middle">1</text><rect x="215" y="35" width="43" height="49" rx="0" fill="#EAF5F4" stroke="#007F83" stroke-width="2"/><text x="236.5" y="69" font-family="Consolas" font-size="25" font-weight="700" fill="#18364B" text-anchor="middle">0</text><rect x="258" y="35" width="43" height="49" rx="0" fill="#EAF5F4" stroke="#007F83" stroke-width="2"/><text x="279.5" y="69" font-family="Consolas" font-size="25" font-weight="700" fill="#18364B" text-anchor="middle">0</text><rect x="301" y="35" width="43" height="49" rx="0" fill="#EAF5F4" stroke="#007F83" stroke-width="2"/><text x="322.5" y="69" font-family="Consolas" font-size="25" font-weight="700" fill="#18364B" text-anchor="middle">0</text><circle cx="43" cy="84" r="4" fill="#B85B16" stroke="#B85B16" stroke-width="2.5"/><text x="390" y="18" font-family="Segoe UI" font-size="21" font-weight="700" fill="#B85B16" text-anchor="start">E</text><rect x="390" y="35" width="43" height="49" rx="0" fill="#EAF5F4" stroke="#B85B16" stroke-width="2"/><text x="411.5" y="69" font-family="Consolas" font-size="25" font-weight="700" fill="#18364B" text-anchor="middle">0</text><rect x="433" y="35" width="43" height="49" rx="0" fill="#EAF5F4" stroke="#B85B16" stroke-width="2"/><text x="454.5" y="69" font-family="Consolas" font-size="25" font-weight="700" fill="#18364B" text-anchor="middle">0</text><rect x="476" y="35" width="43" height="49" rx="0" fill="#EAF5F4" stroke="#B85B16" stroke-width="2"/><text x="497.5" y="69" font-family="Consolas" font-size="25" font-weight="700" fill="#18364B" text-anchor="middle">1</text><rect x="519" y="35" width="43" height="49" rx="0" fill="#EAF5F4" stroke="#B85B16" stroke-width="2"/><text x="540.5" y="69" font-family="Consolas" font-size="25" font-weight="700" fill="#18364B" text-anchor="middle">1</text><text x="364" y="69" font-family="Segoe UI" font-size="25" font-weight="400" fill="#9BAEB7" text-anchor="middle">|</text><path d="M172,96 L172,142" fill="none" stroke="#007F83" stroke-width="2.5" stroke-linejoin="round"/><polygon points="172,142 166.87144143719405,131.15113429579526 177.12855856280595,131.15113429579526" fill="#007F83"/><path d="M474,96 L474,142" fill="none" stroke="#B85B16" stroke-width="2.5" stroke-linejoin="round"/><polygon points="474,142 468.87144143719405,131.15113429579526 479.12855856280595,131.15113429579526" fill="#B85B16"/><text x="0" y="183" font-family="Consolas" font-size="24" font-weight="400" fill="#18364B" text-anchor="start">-1 + 1/8 + 1/16</text><text x="420" y="183" font-family="Consolas" font-size="25" font-weight="400" fill="#B85B16" text-anchor="start">E = 3</text><text x="0" y="235" font-family="Consolas" font-size="25" font-weight="400" fill="#007F83" text-anchor="start">M = -0.8125</text><path d="M250,259 L250,304" fill="none" stroke="#007F83" stroke-width="2.5" stroke-linejoin="round"/><polygon points="250,304 244.87144143719405,293.15113429579526 255.12855856280595,293.15113429579526" fill="#007F83"/><rect x="0" y="320" width="620" height="60" rx="9" fill="#EAF5F4" stroke="#007F83" stroke-width="2"/><text x="310.0" y="357.82" font-family="Consolas" font-size="23" font-weight="700" fill="#007F83" text-anchor="middle">-0.8125 × 2^3 = -6.5</text><text x="0" y="423" font-family="Segoe UI" font-size="19" font-weight="400" fill="#586F7B" text-anchor="start">8-bit M + 4-bit E • two’s complement</text></svg>