<svg xmlns="http://www.w3.org/2000/svg" width="627" height="545" viewBox="-24.0 -51.0 627.0 545.0" role="img" aria-labelledby="title desc"><title id="title">Show working for a negative number</title><desc id="desc">Figure 54: Show working for a negative number. A teaching diagram for Chapter 13.</desc><text x="0" y="0" font-family="Consolas" font-size="26" font-weight="400" fill="#18364B" text-anchor="start">-6.5   |   M: 8 bits, E: 4 bits</text><text x="0" y="75" font-family="Consolas" font-size="27" font-weight="400" fill="#18364B" text-anchor="start">6.5 = 110.1₂ = 0.1101₂ × 2^3</text><text x="0" y="134" font-family="Segoe UI" font-size="21" font-weight="700" fill="#007F83" text-anchor="start">M for +6.5</text><rect x="0" y="151" width="43" height="49" rx="0" fill="#EAF5F4" stroke="#007F83" stroke-width="2" /><text x="21.5" y="185" font-family="Consolas" font-size="25" font-weight="700" fill="#18364B" text-anchor="middle">0</text><rect x="43" y="151" width="43" height="49" rx="0" fill="#EAF5F4" stroke="#007F83" stroke-width="2" /><text x="64.5" y="185" font-family="Consolas" font-size="25" font-weight="700" fill="#18364B" text-anchor="middle">1</text><rect x="86" y="151" width="43" height="49" rx="0" fill="#EAF5F4" stroke="#007F83" stroke-width="2" /><text x="107.5" y="185" font-family="Consolas" font-size="25" font-weight="700" fill="#18364B" text-anchor="middle">1</text><rect x="129" y="151" width="43" height="49" rx="0" fill="#EAF5F4" stroke="#007F83" stroke-width="2" /><text x="150.5" y="185" font-family="Consolas" font-size="25" font-weight="700" fill="#18364B" text-anchor="middle">0</text><rect x="172" y="151" width="43" height="49" rx="0" fill="#EAF5F4" stroke="#007F83" stroke-width="2" /><text x="193.5" y="185" font-family="Consolas" font-size="25" font-weight="700" fill="#18364B" text-anchor="middle">1</text><rect x="215" y="151" width="43" height="49" rx="0" fill="#EAF5F4" stroke="#007F83" stroke-width="2" /><text x="236.5" y="185" font-family="Consolas" font-size="25" font-weight="700" fill="#18364B" text-anchor="middle">0</text><rect x="258" y="151" width="43" height="49" rx="0" fill="#EAF5F4" stroke="#007F83" stroke-width="2" /><text x="279.5" y="185" font-family="Consolas" font-size="25" font-weight="700" fill="#18364B" text-anchor="middle">0</text><rect x="301" y="151" width="43" height="49" rx="0" fill="#EAF5F4" stroke="#007F83" stroke-width="2" /><text x="322.5" y="185" font-family="Consolas" font-size="25" font-weight="700" fill="#18364B" text-anchor="middle">0</text><circle cx="43" cy="200" r="4" fill="#B85B16" stroke="#B85B16" stroke-width="2.5" /><path d="M172,209 L172,299" fill="none" stroke="#007F83" stroke-width="2.5" stroke-linejoin="round" /><polygon points="172,299 166.87144143719405,288.15113429579526 177.12855856280595,288.15113429579526" fill="#007F83" /><text x="192" y="261.0" font-family="Segoe UI" font-size="20" font-weight="400" fill="#007F83" text-anchor="start">two's complement</text><text x="0" y="313" font-family="Segoe UI" font-size="21" font-weight="700" fill="#007F83" text-anchor="start">M</text><rect x="0" y="330" width="43" height="49" rx="0" fill="#EAF5F4" stroke="#007F83" stroke-width="2" /><text x="21.5" y="364" font-family="Consolas" font-size="25" font-weight="700" fill="#18364B" text-anchor="middle">1</text><rect x="43" y="330" width="43" height="49" rx="0" fill="#EAF5F4" stroke="#007F83" stroke-width="2" /><text x="64.5" y="364" font-family="Consolas" font-size="25" font-weight="700" fill="#18364B" text-anchor="middle">0</text><rect x="86" y="330" width="43" height="49" rx="0" fill="#EAF5F4" stroke="#007F83" stroke-width="2" /><text x="107.5" y="364" font-family="Consolas" font-size="25" font-weight="700" fill="#18364B" text-anchor="middle">0</text><rect x="129" y="330" width="43" height="49" rx="0" fill="#EAF5F4" stroke="#007F83" stroke-width="2" /><text x="150.5" y="364" font-family="Consolas" font-size="25" font-weight="700" fill="#18364B" text-anchor="middle">1</text><rect x="172" y="330" width="43" height="49" rx="0" fill="#EAF5F4" stroke="#007F83" stroke-width="2" /><text x="193.5" y="364" font-family="Consolas" font-size="25" font-weight="700" fill="#18364B" text-anchor="middle">1</text><rect x="215" y="330" width="43" height="49" rx="0" fill="#EAF5F4" stroke="#007F83" stroke-width="2" /><text x="236.5" y="364" font-family="Consolas" font-size="25" font-weight="700" fill="#18364B" text-anchor="middle">0</text><rect x="258" y="330" width="43" height="49" rx="0" fill="#EAF5F4" stroke="#007F83" stroke-width="2" /><text x="279.5" y="364" font-family="Consolas" font-size="25" font-weight="700" fill="#18364B" text-anchor="middle">0</text><rect x="301" y="330" width="43" height="49" rx="0" fill="#EAF5F4" stroke="#007F83" stroke-width="2" /><text x="322.5" y="364" font-family="Consolas" font-size="25" font-weight="700" fill="#18364B" text-anchor="middle">0</text><circle cx="43" cy="379" r="4" fill="#B85B16" stroke="#B85B16" stroke-width="2.5" /><text x="390" y="313" font-family="Segoe UI" font-size="21" font-weight="700" fill="#B85B16" text-anchor="start">E</text><rect x="390" y="330" width="43" height="49" rx="0" fill="#EAF5F4" stroke="#B85B16" stroke-width="2" /><text x="411.5" y="364" font-family="Consolas" font-size="25" font-weight="700" fill="#18364B" text-anchor="middle">0</text><rect x="433" y="330" width="43" height="49" rx="0" fill="#EAF5F4" stroke="#B85B16" stroke-width="2" /><text x="454.5" y="364" font-family="Consolas" font-size="25" font-weight="700" fill="#18364B" text-anchor="middle">0</text><rect x="476" y="330" width="43" height="49" rx="0" fill="#EAF5F4" stroke="#B85B16" stroke-width="2" /><text x="497.5" y="364" font-family="Consolas" font-size="25" font-weight="700" fill="#18364B" text-anchor="middle">1</text><rect x="519" y="330" width="43" height="49" rx="0" fill="#EAF5F4" stroke="#B85B16" stroke-width="2" /><text x="540.5" y="364" font-family="Consolas" font-size="25" font-weight="700" fill="#18364B" text-anchor="middle">1</text><text x="364" y="364" font-family="Segoe UI" font-size="25" font-weight="400" fill="#9BAEB7" text-anchor="middle">|</text><text x="0" y="465" font-family="Consolas" font-size="26" font-weight="400" fill="#007F83" text-anchor="start">(-104/128) × 2^3 = -6.5</text><text x="475" y="250" font-family="Segoe UI" font-size="23" font-weight="700" fill="#B85B16" text-anchor="start">E stays +3</text></svg>